<?xml version="1.0" standalone="no"?>
<!DOCTYPE svg PUBLIC "-//W3C//DTD SVG 20010904//EN"
 "http://www.w3.org/TR/2001/REC-SVG-20010904/DTD/svg10.dtd">
<svg version="1.0" xmlns="http://www.w3.org/2000/svg"
 width="839.000000pt" height="1280.000000pt" viewBox="0 0 839.000000 1280.000000"
 preserveAspectRatio="xMidYMid meet">
<metadata>
Created by potrace 1.15, written by Peter Selinger 2001-2017
</metadata>
<g transform="translate(0.000000,1280.000000) scale(0.100000,-0.100000)"
fill="#000000" stroke="none">
<path d="M3575 12794 c-150 -14 -273 -28 -353 -40 -985 -155 -1859 -684 -2470
-1496 -318 -424 -554 -948 -667 -1481 -55 -257 -66 -370 -75 -757 -12 -527
-12 -5270 0 -5450 28 -405 112 -782 255 -1150 58 -149 226 -483 314 -622 594
-942 1540 -1572 2626 -1748 262 -42 327 -45 995 -45 684 0 738 3 1020 51 642
110 1252 387 1764 803 708 573 1204 1427 1350 2321 53 329 51 188 51 3230 0
3128 4 2917 -61 3270 -178 968 -729 1833 -1535 2410 -471 338 -1031 569 -1597
661 -247 39 -288 41 -937 44 -352 1 -658 1 -680 -1z m307 -1521 c125 -143
2267 -2623 2481 -2873 l167 -195 -217 -216 c-120 -118 -540 -531 -933 -918
-393 -387 -716 -707 -718 -712 -2 -4 376 -392 840 -861 464 -469 882 -894 930
-943 l87 -90 -596 -725 c-328 -399 -943 -1145 -1367 -1659 l-771 -934 -3 2172
c-1 1327 -6 2171 -11 2169 -5 -2 -336 -324 -735 -715 -400 -392 -730 -713
-735 -713 -9 0 -474 473 -479 488 -1 4 282 286 629 627 348 341 762 748 921
905 l289 285 -925 930 -924 930 246 248 247 248 737 -743 737 -743 0 2073 c1
1139 3 2072 5 2072 2 0 47 -48 98 -107z"/>
<path d="M4480 8341 l0 -1173 311 303 c170 167 418 410 550 539 l239 235 -118
135 c-65 74 -306 353 -536 620 -230 267 -425 492 -432 500 -12 12 -14 -170
-14 -1159z"/>
<path d="M4480 4311 c0 -737 4 -1221 9 -1215 35 36 1091 1321 1091 1327 0 4
-247 256 -550 560 l-549 552 -1 -1224z"/>
</g>
</svg>
